<svg xmlns="http://www.w3.org/2000/svg" xmlns:xlink="http://www.w3.org/1999/xlink" width="500" zoomAndPan="magnify" viewBox="0 0 375 374.999991" height="500" preserveAspectRatio="xMidYMid meet" version="1.0"><defs><clipPath id="76065b4563"><path d="M 350.613281 375 L 24.386719 375 C 10.949219 375 0 364.050781 0 350.613281 L 0 24.386719 C 0 10.949219 10.949219 0 24.386719 0 L 350.613281 0 C 364.050781 0 375 10.949219 375 24.386719 L 375 350.613281 C 375 364.050781 364.050781 375 350.613281 375 " clip-rule="nonzero"/></clipPath><clipPath id="8ac1711a8e"><path d="M 172.207031 105.210938 L 339.457031 105.210938 L 339.457031 321.210938 L 172.207031 321.210938 Z M 172.207031 105.210938 " clip-rule="nonzero"/></clipPath><clipPath id="452720e64b"><path d="M 35.824219 105.210938 L 212.824219 105.210938 L 212.824219 321.210938 L 35.824219 321.210938 Z M 35.824219 105.210938 " clip-rule="nonzero"/></clipPath><clipPath id="79ba358671"><path d="M 153 4.40625 L 228 4.40625 L 228 125.15625 L 153 125.15625 Z M 153 4.40625 " clip-rule="nonzero"/></clipPath></defs><g clip-path="url(#76065b4563)"><rect x="-37.5" width="450" fill="#6415ff" y="-37.499999" height="449.999989" fill-opacity="1"/></g><g clip-path="url(#8ac1711a8e)"><path fill="#ffffff" d="M 303.113281 206.242188 C 318.703125 197.78125 329.417969 180.386719 329.417969 161.574219 C 329.417969 126.828125 303.738281 105.242188 262.410156 105.242188 L 177.125 105.242188 C 174.410156 105.242188 172.207031 107.441406 172.207031 110.152344 L 172.207031 316.273438 C 172.207031 318.980469 174.410156 321.179688 177.125 321.179688 L 264.386719 321.179688 C 310.691406 321.179688 339.457031 296.859375 339.457031 257.707031 C 339.457031 233.234375 325.28125 213.777344 303.113281 206.242188 Z M 216.480469 139.597656 L 250.894531 139.597656 C 272.648438 139.597656 285.347656 150.4375 285.347656 169.042969 C 285.347656 188.089844 271.8125 198.488281 246.289062 198.488281 L 216.480469 198.488281 Z M 254.007812 286.828125 L 216.480469 286.828125 L 216.480469 227.933594 L 252.59375 227.933594 C 280.464844 227.933594 295.183594 237.996094 295.183594 257.050781 C 295.183594 276.507812 280.894531 286.828125 254.007812 286.828125 Z M 254.007812 286.828125 " fill-opacity="1" fill-rule="nonzero"/></g><g clip-path="url(#452720e64b)"><path fill="#ffffff" d="M 207.851562 321.210938 L 173.457031 321.210938 C 170.738281 321.210938 168.542969 319.011719 168.542969 316.304688 L 168.542969 227.941406 L 80.105469 227.941406 L 80.105469 316.304688 C 80.105469 319.011719 77.910156 321.210938 75.191406 321.210938 L 40.796875 321.210938 C 38.082031 321.210938 35.886719 319.011719 35.886719 316.304688 L 35.886719 110.121094 C 35.886719 107.410156 38.082031 105.210938 40.796875 105.210938 L 75.191406 105.210938 C 77.910156 105.210938 80.105469 107.410156 80.105469 110.121094 L 80.105469 188.667969 L 168.542969 188.667969 L 168.542969 110.121094 C 168.542969 107.410156 170.738281 105.210938 173.457031 105.210938 L 207.851562 105.210938 C 210.566406 105.210938 212.761719 107.410156 212.761719 110.121094 L 212.761719 316.304688 C 212.761719 319.011719 210.566406 321.210938 207.851562 321.210938 Z M 207.851562 321.210938 " fill-opacity="1" fill-rule="nonzero"/></g><g clip-path="url(#79ba358671)"><path fill="#ffffff" d="M 162.070312 99.261719 C 160.570312 97.960938 159.234375 96.503906 158.0625 94.898438 C 156.890625 93.292969 155.914062 91.574219 155.128906 89.746094 C 154.347656 87.917969 153.777344 86.023438 153.421875 84.066406 C 153.066406 82.105469 152.933594 80.132812 153.027344 78.144531 C 154.839844 78.359375 156.628906 78.699219 158.394531 79.167969 C 160.160156 79.632812 161.886719 80.222656 163.570312 80.933594 C 165.253906 81.644531 166.878906 82.472656 168.445312 83.414062 C 170.011719 84.351562 171.507812 85.398438 172.925781 86.550781 C 174.347656 87.703125 175.679688 88.949219 176.925781 90.289062 C 178.167969 91.628906 179.316406 93.050781 180.359375 94.554688 C 181.40625 96.054688 182.339844 97.625 183.164062 99.257812 C 183.988281 100.894531 184.695312 102.578125 185.28125 104.3125 C 183.289062 104.84375 181.257812 105.136719 179.191406 105.183594 C 177.128906 105.230469 175.085938 105.035156 173.070312 104.597656 C 171.050781 104.160156 169.113281 103.488281 167.253906 102.585938 C 165.394531 101.683594 163.667969 100.574219 162.070312 99.261719 Z M 211.324219 125.128906 L 169.230469 125.128906 C 170.136719 123.347656 171.253906 121.710938 172.585938 120.222656 C 173.914062 118.730469 175.414062 117.4375 177.082031 116.339844 C 178.75 115.242188 180.527344 114.375 182.421875 113.742188 C 184.3125 113.113281 186.253906 112.734375 188.246094 112.609375 L 188.246094 57.5625 C 187.683594 57.515625 187.128906 57.453125 186.574219 57.371094 C 186.015625 57.289062 185.464844 57.191406 184.917969 57.074219 C 184.367188 56.957031 183.824219 56.820312 183.28125 56.671875 C 182.742188 56.519531 182.207031 56.351562 181.675781 56.164062 C 181.148438 55.980469 180.625 55.777344 180.105469 55.558594 C 179.589844 55.339844 179.082031 55.101562 178.578125 54.851562 C 178.078125 54.601562 177.582031 54.332031 177.097656 54.050781 C 176.613281 53.765625 176.136719 53.46875 175.671875 53.15625 C 175.207031 52.84375 174.75 52.515625 174.304688 52.171875 C 173.859375 51.832031 173.425781 51.472656 173.003906 51.105469 C 172.578125 50.734375 172.167969 50.351562 171.769531 49.953125 C 171.371094 49.558594 170.984375 49.148438 170.613281 48.730469 C 170.242188 48.308594 169.882812 47.875 169.535156 47.433594 C 169.191406 46.988281 168.859375 46.535156 168.542969 46.070312 C 168.226562 45.605469 167.925781 45.128906 167.640625 44.648438 C 167.355469 44.164062 167.082031 43.671875 166.828125 43.167969 C 166.574219 42.667969 166.335938 42.160156 166.113281 41.640625 C 165.890625 41.125 165.683594 40.601562 165.492188 40.074219 C 165.304688 39.542969 165.128906 39.007812 164.976562 38.46875 C 164.820312 37.925781 164.679688 37.382812 164.558594 36.832031 C 164.4375 36.285156 164.335938 35.730469 164.25 35.175781 C 164.164062 34.617188 164.09375 34.0625 164.042969 33.5 C 163.992188 32.941406 163.960938 32.378906 163.945312 31.816406 C 163.929688 31.253906 163.933594 30.691406 163.953125 30.128906 C 163.972656 29.566406 164.011719 29.003906 164.066406 28.445312 C 164.125 27.886719 164.195312 27.328125 164.289062 26.773438 C 164.378906 26.21875 164.488281 25.664062 164.617188 25.117188 C 164.742188 24.570312 164.886719 24.027344 165.046875 23.488281 C 165.207031 22.949219 165.386719 22.414062 165.578125 21.886719 C 165.773438 21.359375 165.984375 20.835938 166.214844 20.324219 C 166.441406 19.808594 166.683594 19.300781 166.945312 18.804688 C 167.203125 18.304688 167.480469 17.816406 167.769531 17.332031 C 168.0625 16.851562 168.367188 16.382812 168.6875 15.917969 C 169.007812 15.457031 169.34375 15.007812 169.695312 14.566406 C 170.042969 14.125 170.40625 13.695312 170.78125 13.28125 C 171.160156 12.863281 171.546875 12.457031 171.949219 12.066406 C 172.351562 11.671875 172.765625 11.292969 173.191406 10.929688 C 173.621094 10.5625 174.058594 10.210938 174.503906 9.871094 C 174.953125 9.535156 175.414062 9.210938 175.882812 8.902344 C 176.351562 8.59375 176.828125 8.300781 177.316406 8.019531 C 177.804688 7.742188 178.300781 7.480469 178.804688 7.234375 C 179.308594 6.988281 179.820312 6.757812 180.339844 6.542969 C 180.859375 6.328125 181.382812 6.132812 181.914062 5.949219 C 182.449219 5.769531 182.984375 5.605469 183.527344 5.460938 C 184.066406 5.3125 184.613281 5.183594 185.164062 5.074219 C 185.714844 4.960938 186.265625 4.867188 186.824219 4.792969 C 187.378906 4.714844 187.9375 4.65625 188.496094 4.617188 C 189.054688 4.574219 189.617188 4.550781 190.175781 4.546875 C 190.738281 4.542969 191.300781 4.554688 191.859375 4.585938 C 192.417969 4.617188 192.976562 4.664062 193.535156 4.730469 C 194.09375 4.796875 194.648438 4.882812 195.199219 4.984375 C 195.75 5.085938 196.300781 5.203125 196.84375 5.339844 C 197.386719 5.476562 197.925781 5.632812 198.460938 5.800781 C 198.996094 5.972656 199.523438 6.160156 200.046875 6.367188 C 200.570312 6.570312 201.085938 6.792969 201.59375 7.03125 C 202.105469 7.265625 202.605469 7.519531 203.097656 7.789062 C 203.589844 8.058594 204.074219 8.34375 204.546875 8.644531 C 205.023438 8.945312 205.488281 9.261719 205.941406 9.589844 C 206.394531 9.921875 206.839844 10.265625 207.273438 10.621094 C 207.703125 10.980469 208.125 11.351562 208.535156 11.738281 C 208.945312 12.125 209.339844 12.519531 209.722656 12.929688 C 210.109375 13.339844 210.480469 13.765625 210.835938 14.199219 C 211.191406 14.632812 211.535156 15.078125 211.867188 15.53125 C 212.195312 15.988281 212.507812 16.453125 212.808594 16.929688 C 213.105469 17.40625 213.390625 17.890625 213.660156 18.386719 C 213.929688 18.878906 214.179688 19.382812 214.417969 19.890625 C 214.65625 20.402344 214.875 20.917969 215.078125 21.441406 C 215.285156 21.96875 215.472656 22.496094 215.640625 23.035156 C 215.8125 23.570312 215.964844 24.109375 216.101562 24.65625 C 216.238281 25.203125 216.355469 25.753906 216.457031 26.304688 C 216.558594 26.859375 216.640625 27.414062 216.707031 27.972656 C 216.773438 28.53125 216.824219 29.09375 216.851562 29.65625 C 216.882812 30.21875 216.894531 30.777344 216.890625 31.34375 C 216.886719 31.90625 216.863281 32.464844 216.824219 33.027344 C 216.78125 33.589844 216.722656 34.148438 216.648438 34.707031 C 216.570312 35.261719 216.476562 35.816406 216.367188 36.371094 C 216.253906 36.921875 216.125 37.46875 215.980469 38.011719 C 215.832031 38.554688 215.671875 39.09375 215.488281 39.625 C 215.308594 40.160156 215.113281 40.683594 214.898438 41.207031 C 214.6875 41.726562 214.457031 42.238281 214.210938 42.746094 C 213.964844 43.25 213.703125 43.746094 213.425781 44.238281 C 213.144531 44.726562 212.855469 45.207031 212.546875 45.675781 C 212.238281 46.144531 211.914062 46.605469 211.578125 47.054688 C 211.242188 47.503906 210.890625 47.945312 210.523438 48.371094 C 210.160156 48.800781 209.78125 49.214844 209.390625 49.617188 C 209 50.019531 208.59375 50.410156 208.179688 50.789062 C 207.761719 51.167969 207.335938 51.53125 206.894531 51.878906 C 206.457031 52.230469 206.007812 52.566406 205.546875 52.886719 C 205.085938 53.210938 204.617188 53.515625 204.136719 53.808594 C 203.65625 54.101562 203.167969 54.375 202.667969 54.636719 C 202.171875 54.898438 201.667969 55.140625 201.152344 55.371094 C 200.640625 55.597656 200.121094 55.808594 199.59375 56.003906 C 199.070312 56.199219 198.535156 56.378906 198 56.539062 C 197.460938 56.699219 196.917969 56.84375 196.371094 56.96875 C 195.824219 57.097656 195.277344 57.207031 194.722656 57.296875 C 194.167969 57.390625 193.613281 57.464844 193.054688 57.519531 L 193.054688 112.6875 C 194.976562 112.863281 196.847656 113.277344 198.667969 113.929688 C 200.488281 114.582031 202.195312 115.453125 203.792969 116.539062 C 205.390625 117.628906 206.828125 118.898438 208.101562 120.355469 C 209.378906 121.808594 210.453125 123.402344 211.324219 125.128906 Z M 192.660156 42.042969 C 194.09375 41.792969 195.332031 41.15625 196.367188 40.128906 C 196.703125 39.785156 197 39.414062 197.261719 39.011719 C 197.992188 37.878906 198.359375 36.640625 198.363281 35.289062 C 198.363281 34.769531 198.300781 34.261719 198.171875 33.757812 C 197.90625 32.5625 197.351562 31.523438 196.507812 30.640625 L 196.367188 30.484375 C 196.101562 30.21875 195.816406 29.976562 195.511719 29.761719 C 194.324219 28.914062 193 28.488281 191.542969 28.484375 L 188.984375 28.484375 C 188.402344 28.46875 187.910156 28.25 187.503906 27.832031 C 187.148438 27.433594 186.972656 26.96875 186.972656 26.4375 C 186.980469 26.050781 187.082031 25.695312 187.28125 25.367188 C 187.363281 25.234375 187.460938 25.113281 187.574219 25.007812 C 187.960938 24.613281 188.433594 24.417969 188.984375 24.421875 L 191.542969 24.421875 C 192.097656 24.417969 192.574219 24.613281 192.96875 25.007812 C 193.1875 25.226562 193.351562 25.484375 193.449219 25.78125 C 193.527344 25.992188 193.566406 26.210938 193.570312 26.4375 C 193.539062 26.773438 193.582031 27.101562 193.691406 27.417969 C 193.796875 27.738281 193.96875 28.023438 194.195312 28.269531 C 194.421875 28.519531 194.691406 28.710938 195 28.847656 C 195.304688 28.984375 195.628906 29.050781 195.964844 29.050781 C 196.300781 29.050781 196.625 28.984375 196.933594 28.847656 C 197.242188 28.710938 197.507812 28.519531 197.734375 28.269531 C 197.964844 28.023438 198.132812 27.738281 198.242188 27.417969 C 198.351562 27.101562 198.390625 26.773438 198.363281 26.4375 C 198.367188 26.101562 198.339844 25.765625 198.277344 25.4375 C 198.054688 23.957031 197.410156 22.6875 196.351562 21.628906 C 196.28125 21.5625 196.199219 21.492188 196.164062 21.457031 C 195.164062 20.53125 193.996094 19.953125 192.660156 19.71875 L 192.660156 18.304688 C 192.660156 17.988281 192.597656 17.683594 192.476562 17.394531 C 192.355469 17.101562 192.183594 16.84375 191.960938 16.617188 C 191.738281 16.394531 191.480469 16.222656 191.191406 16.101562 C 190.898438 15.980469 190.59375 15.921875 190.28125 15.921875 C 189.964844 15.921875 189.660156 15.980469 189.371094 16.101562 C 189.078125 16.222656 188.820312 16.394531 188.597656 16.617188 C 188.375 16.84375 188.203125 17.101562 188.082031 17.394531 C 187.960938 17.683594 187.902344 17.988281 187.902344 18.304688 L 187.902344 19.71875 C 187.507812 19.78125 187.121094 19.882812 186.742188 20.015625 C 186.367188 20.148438 186.003906 20.3125 185.65625 20.511719 C 185.308594 20.707031 184.976562 20.933594 184.667969 21.1875 C 184.363281 21.441406 184.078125 21.722656 183.816406 22.027344 C 183.558594 22.332031 183.328125 22.660156 183.125 23.003906 C 182.921875 23.351562 182.753906 23.710938 182.613281 24.085938 C 182.476562 24.464844 182.371094 24.847656 182.300781 25.242188 C 182.226562 25.636719 182.191406 26.035156 182.191406 26.4375 C 182.195312 27.3125 182.355469 28.152344 182.679688 28.964844 C 183.003906 29.777344 183.464844 30.503906 184.0625 31.140625 L 184.183594 31.257812 C 184.65625 31.738281 185.191406 32.140625 185.78125 32.464844 C 186.785156 33.003906 187.855469 33.273438 188.992188 33.273438 L 191.535156 33.273438 C 192.136719 33.273438 192.640625 33.5 193.046875 33.945312 C 193.132812 34.035156 193.207031 34.132812 193.269531 34.238281 C 193.472656 34.558594 193.574219 34.910156 193.578125 35.289062 C 193.574219 35.855469 193.375 36.335938 192.976562 36.738281 C 192.582031 37.144531 192.101562 37.34375 191.535156 37.339844 L 188.992188 37.339844 C 188.4375 37.328125 187.964844 37.128906 187.566406 36.738281 C 187.171875 36.335938 186.976562 35.855469 186.984375 35.289062 C 186.957031 34.988281 186.878906 34.703125 186.746094 34.429688 C 186.613281 34.160156 186.4375 33.921875 186.214844 33.71875 C 185.992188 33.511719 185.742188 33.355469 185.460938 33.246094 C 185.179688 33.136719 184.886719 33.082031 184.585938 33.082031 C 184.285156 33.082031 183.996094 33.136719 183.714844 33.246094 C 183.433594 33.355469 183.183594 33.511719 182.960938 33.71875 C 182.738281 33.921875 182.5625 34.160156 182.429688 34.429688 C 182.296875 34.703125 182.214844 34.988281 182.191406 35.289062 C 182.1875 36.199219 182.359375 37.074219 182.707031 37.914062 C 183.054688 38.753906 183.554688 39.492188 184.199219 40.128906 C 184.671875 40.605469 185.207031 41.003906 185.796875 41.320312 C 186.460938 41.664062 187.160156 41.90625 187.894531 42.042969 L 187.894531 43.4375 C 187.894531 43.753906 187.953125 44.058594 188.074219 44.351562 C 188.195312 44.644531 188.367188 44.902344 188.589844 45.125 C 188.8125 45.347656 189.070312 45.519531 189.363281 45.640625 C 189.652344 45.761719 189.957031 45.824219 190.273438 45.824219 C 190.589844 45.824219 190.890625 45.761719 191.183594 45.640625 C 191.476562 45.519531 191.730469 45.347656 191.953125 45.125 C 192.179688 44.902344 192.351562 44.644531 192.472656 44.351562 C 192.589844 44.058594 192.652344 43.753906 192.652344 43.4375 Z M 195.5 104.3125 C 197.496094 104.84375 199.523438 105.136719 201.589844 105.183594 C 203.65625 105.230469 205.695312 105.035156 207.714844 104.597656 C 209.734375 104.15625 211.671875 103.484375 213.53125 102.582031 C 215.390625 101.679688 217.117188 100.570312 218.714844 99.257812 C 220.214844 97.953125 221.550781 96.5 222.722656 94.890625 C 223.894531 93.285156 224.871094 91.566406 225.65625 89.738281 C 226.4375 87.910156 227.007812 86.015625 227.363281 84.058594 C 227.71875 82.101562 227.851562 80.128906 227.757812 78.140625 C 225.945312 78.355469 224.152344 78.695312 222.386719 79.160156 C 220.621094 79.628906 218.894531 80.21875 217.210938 80.929688 C 215.527344 81.640625 213.902344 82.46875 212.335938 83.40625 C 210.769531 84.347656 209.273438 85.394531 207.855469 86.546875 C 206.433594 87.699219 205.101562 88.945312 203.855469 90.285156 C 202.609375 91.628906 201.464844 93.050781 200.421875 94.550781 C 199.375 96.054688 198.441406 97.625 197.617188 99.257812 C 196.792969 100.894531 196.085938 102.578125 195.5 104.3125 Z M 195.5 104.3125 " fill-opacity="1" fill-rule="nonzero"/></g></svg>